<mxfile host="app.diagrams.net" modified="2024-01-20T16:48:46.179Z" agent="Mozilla/5.0 (Windows NT 10.0; Win64; x64) AppleWebKit/537.36 (KHTML, like Gecko) Chrome/120.0.0.0 Safari/537.36" etag="WzXjDD9L0ohgcmMqRQ9k" version="22.1.16" type="device">
  <diagram name="Pagina-1" id="_mNYDGI0cxBAl4LBFdJh">
    <mxGraphModel dx="2289" dy="1191" grid="0" gridSize="10" guides="1" tooltips="1" connect="1" arrows="1" fold="1" page="1" pageScale="1" pageWidth="827" pageHeight="1169" math="0" shadow="0">
      <root>
        <mxCell id="0" />
        <mxCell id="1" parent="0" />
        <mxCell id="CC42XWv4sTO-U5E0HZjk-1" value="Entity" style="swimlane;fontStyle=0;childLayout=stackLayout;horizontal=1;startSize=30;horizontalStack=0;resizeParent=1;resizeParentMax=0;resizeLast=0;collapsible=1;marginBottom=0;whiteSpace=wrap;html=1;" vertex="1" parent="1">
          <mxGeometry x="297" y="156" width="140" height="60" as="geometry" />
        </mxCell>
        <mxCell id="CC42XWv4sTO-U5E0HZjk-2" value="Item 1" style="text;strokeColor=none;fillColor=none;align=left;verticalAlign=middle;spacingLeft=4;spacingRight=4;overflow=hidden;points=[[0,0.5],[1,0.5]];portConstraint=eastwest;rotatable=0;whiteSpace=wrap;html=1;" vertex="1" parent="CC42XWv4sTO-U5E0HZjk-1">
          <mxGeometry y="30" width="140" height="30" as="geometry" />
        </mxCell>
        <mxCell id="CC42XWv4sTO-U5E0HZjk-5" value="Entity" style="swimlane;fontStyle=0;childLayout=stackLayout;horizontal=1;startSize=30;horizontalStack=0;resizeParent=1;resizeParentMax=0;resizeLast=0;collapsible=1;marginBottom=0;whiteSpace=wrap;html=1;" vertex="1" parent="1">
          <mxGeometry x="535" y="294" width="140" height="60" as="geometry" />
        </mxCell>
        <mxCell id="CC42XWv4sTO-U5E0HZjk-6" value="Item 1" style="text;strokeColor=none;fillColor=none;align=left;verticalAlign=middle;spacingLeft=4;spacingRight=4;overflow=hidden;points=[[0,0.5],[1,0.5]];portConstraint=eastwest;rotatable=0;whiteSpace=wrap;html=1;" vertex="1" parent="CC42XWv4sTO-U5E0HZjk-5">
          <mxGeometry y="30" width="140" height="30" as="geometry" />
        </mxCell>
        <mxCell id="CC42XWv4sTO-U5E0HZjk-7" value="Entity" style="swimlane;fontStyle=0;childLayout=stackLayout;horizontal=1;startSize=30;horizontalStack=0;resizeParent=1;resizeParentMax=0;resizeLast=0;collapsible=1;marginBottom=0;whiteSpace=wrap;html=1;" vertex="1" parent="1">
          <mxGeometry x="70" y="294" width="140" height="60" as="geometry" />
        </mxCell>
        <mxCell id="CC42XWv4sTO-U5E0HZjk-8" value="Item 1" style="text;strokeColor=none;fillColor=none;align=left;verticalAlign=middle;spacingLeft=4;spacingRight=4;overflow=hidden;points=[[0,0.5],[1,0.5]];portConstraint=eastwest;rotatable=0;whiteSpace=wrap;html=1;" vertex="1" parent="CC42XWv4sTO-U5E0HZjk-7">
          <mxGeometry y="30" width="140" height="30" as="geometry" />
        </mxCell>
        <mxCell id="CC42XWv4sTO-U5E0HZjk-9" value="Entity" style="swimlane;fontStyle=0;childLayout=stackLayout;horizontal=1;startSize=30;horizontalStack=0;resizeParent=1;resizeParentMax=0;resizeLast=0;collapsible=1;marginBottom=0;whiteSpace=wrap;html=1;" vertex="1" parent="1">
          <mxGeometry x="535" y="462" width="140" height="60" as="geometry" />
        </mxCell>
        <mxCell id="CC42XWv4sTO-U5E0HZjk-10" value="Item 1" style="text;strokeColor=none;fillColor=none;align=left;verticalAlign=middle;spacingLeft=4;spacingRight=4;overflow=hidden;points=[[0,0.5],[1,0.5]];portConstraint=eastwest;rotatable=0;whiteSpace=wrap;html=1;" vertex="1" parent="CC42XWv4sTO-U5E0HZjk-9">
          <mxGeometry y="30" width="140" height="30" as="geometry" />
        </mxCell>
        <mxCell id="CC42XWv4sTO-U5E0HZjk-11" value="Entity" style="swimlane;fontStyle=0;childLayout=stackLayout;horizontal=1;startSize=30;horizontalStack=0;resizeParent=1;resizeParentMax=0;resizeLast=0;collapsible=1;marginBottom=0;whiteSpace=wrap;html=1;" vertex="1" parent="1">
          <mxGeometry x="70" y="462" width="140" height="60" as="geometry" />
        </mxCell>
        <mxCell id="CC42XWv4sTO-U5E0HZjk-12" value="Item 1" style="text;strokeColor=none;fillColor=none;align=left;verticalAlign=middle;spacingLeft=4;spacingRight=4;overflow=hidden;points=[[0,0.5],[1,0.5]];portConstraint=eastwest;rotatable=0;whiteSpace=wrap;html=1;" vertex="1" parent="CC42XWv4sTO-U5E0HZjk-11">
          <mxGeometry y="30" width="140" height="30" as="geometry" />
        </mxCell>
        <mxCell id="CC42XWv4sTO-U5E0HZjk-14" value="Entity" style="swimlane;fontStyle=0;childLayout=stackLayout;horizontal=1;startSize=30;horizontalStack=0;resizeParent=1;resizeParentMax=0;resizeLast=0;collapsible=1;marginBottom=0;whiteSpace=wrap;html=1;" vertex="1" parent="1">
          <mxGeometry x="297" y="608" width="140" height="60" as="geometry" />
        </mxCell>
        <mxCell id="CC42XWv4sTO-U5E0HZjk-15" value="Item 1" style="text;strokeColor=none;fillColor=none;align=left;verticalAlign=middle;spacingLeft=4;spacingRight=4;overflow=hidden;points=[[0,0.5],[1,0.5]];portConstraint=eastwest;rotatable=0;whiteSpace=wrap;html=1;" vertex="1" parent="CC42XWv4sTO-U5E0HZjk-14">
          <mxGeometry y="30" width="140" height="30" as="geometry" />
        </mxCell>
        <mxCell id="CC42XWv4sTO-U5E0HZjk-21" style="edgeStyle=none;rounded=0;orthogonalLoop=1;jettySize=auto;html=1;exitX=0.5;exitY=0;exitDx=0;exitDy=0;endArrow=block;endFill=0;" edge="1" parent="1" source="CC42XWv4sTO-U5E0HZjk-19">
          <mxGeometry relative="1" as="geometry">
            <mxPoint x="621.6" y="101.04923299153648" as="targetPoint" />
          </mxGeometry>
        </mxCell>
        <mxCell id="CC42XWv4sTO-U5E0HZjk-22" style="edgeStyle=none;rounded=0;orthogonalLoop=1;jettySize=auto;html=1;exitX=0.5;exitY=1;exitDx=0;exitDy=0;endArrow=none;endFill=0;" edge="1" parent="1" source="CC42XWv4sTO-U5E0HZjk-19">
          <mxGeometry relative="1" as="geometry">
            <mxPoint x="621.6" y="146" as="targetPoint" />
          </mxGeometry>
        </mxCell>
        <mxCell id="CC42XWv4sTO-U5E0HZjk-19" value="" style="ellipse;whiteSpace=wrap;html=1;aspect=fixed;fillColor=#000000;" vertex="1" parent="1">
          <mxGeometry x="619" y="129" width="5" height="5" as="geometry" />
        </mxCell>
        <mxCell id="CC42XWv4sTO-U5E0HZjk-23" value="" style="endArrow=none;html=1;rounded=0;" edge="1" parent="1">
          <mxGeometry width="50" height="50" relative="1" as="geometry">
            <mxPoint x="602" y="146" as="sourcePoint" />
            <mxPoint x="622" y="146" as="targetPoint" />
          </mxGeometry>
        </mxCell>
        <mxCell id="CC42XWv4sTO-U5E0HZjk-24" value="" style="endArrow=none;html=1;rounded=0;movable=1;resizable=1;rotatable=1;deletable=1;editable=1;locked=0;connectable=1;" edge="1" parent="1">
          <mxGeometry width="50" height="50" relative="1" as="geometry">
            <mxPoint x="621" y="146" as="sourcePoint" />
            <mxPoint x="641" y="146" as="targetPoint" />
          </mxGeometry>
        </mxCell>
        <mxCell id="CC42XWv4sTO-U5E0HZjk-30" value="" style="endArrow=classic;html=1;rounded=0;" edge="1" parent="1">
          <mxGeometry width="50" height="50" relative="1" as="geometry">
            <mxPoint x="602" y="146" as="sourcePoint" />
            <mxPoint x="602" y="171" as="targetPoint" />
          </mxGeometry>
        </mxCell>
        <mxCell id="CC42XWv4sTO-U5E0HZjk-31" value="" style="endArrow=classic;html=1;rounded=0;movable=1;resizable=1;rotatable=1;deletable=1;editable=1;locked=0;connectable=1;" edge="1" parent="1">
          <mxGeometry width="50" height="50" relative="1" as="geometry">
            <mxPoint x="641" y="146" as="sourcePoint" />
            <mxPoint x="641" y="171" as="targetPoint" />
          </mxGeometry>
        </mxCell>
        <mxCell id="CC42XWv4sTO-U5E0HZjk-34" style="edgeStyle=none;rounded=0;orthogonalLoop=1;jettySize=auto;html=1;exitX=0.5;exitY=0;exitDx=0;exitDy=0;endArrow=block;endFill=0;shape=flexArrow;width=2.1052631578947367;endSize=1.8842105263157893;endWidth=6.9014641867827455;" edge="1" parent="1" source="CC42XWv4sTO-U5E0HZjk-36">
          <mxGeometry relative="1" as="geometry">
            <mxPoint x="712.6" y="104.99923299153649" as="targetPoint" />
          </mxGeometry>
        </mxCell>
        <mxCell id="CC42XWv4sTO-U5E0HZjk-35" style="edgeStyle=none;rounded=0;orthogonalLoop=1;jettySize=auto;html=1;exitX=0.5;exitY=1;exitDx=0;exitDy=0;endArrow=none;endFill=0;" edge="1" parent="1" source="CC42XWv4sTO-U5E0HZjk-36">
          <mxGeometry relative="1" as="geometry">
            <mxPoint x="712.6" y="149.95" as="targetPoint" />
          </mxGeometry>
        </mxCell>
        <mxCell id="CC42XWv4sTO-U5E0HZjk-36" value="" style="ellipse;whiteSpace=wrap;html=1;aspect=fixed;fillColor=#000000;" vertex="1" parent="1">
          <mxGeometry x="710" y="132.95" width="5" height="5" as="geometry" />
        </mxCell>
        <mxCell id="CC42XWv4sTO-U5E0HZjk-37" value="" style="endArrow=none;html=1;rounded=0;" edge="1" parent="1">
          <mxGeometry width="50" height="50" relative="1" as="geometry">
            <mxPoint x="693" y="149.95" as="sourcePoint" />
            <mxPoint x="713" y="149.95" as="targetPoint" />
          </mxGeometry>
        </mxCell>
        <mxCell id="CC42XWv4sTO-U5E0HZjk-38" value="" style="endArrow=none;html=1;rounded=0;movable=1;resizable=1;rotatable=1;deletable=1;editable=1;locked=0;connectable=1;" edge="1" parent="1">
          <mxGeometry width="50" height="50" relative="1" as="geometry">
            <mxPoint x="712" y="149.95" as="sourcePoint" />
            <mxPoint x="732" y="149.95" as="targetPoint" />
          </mxGeometry>
        </mxCell>
        <mxCell id="CC42XWv4sTO-U5E0HZjk-39" value="" style="endArrow=classic;html=1;rounded=0;" edge="1" parent="1">
          <mxGeometry width="50" height="50" relative="1" as="geometry">
            <mxPoint x="693" y="149.95" as="sourcePoint" />
            <mxPoint x="693" y="174.95" as="targetPoint" />
          </mxGeometry>
        </mxCell>
        <mxCell id="CC42XWv4sTO-U5E0HZjk-40" value="" style="endArrow=classic;html=1;rounded=0;movable=1;resizable=1;rotatable=1;deletable=1;editable=1;locked=0;connectable=1;" edge="1" parent="1">
          <mxGeometry width="50" height="50" relative="1" as="geometry">
            <mxPoint x="732" y="149.95" as="sourcePoint" />
            <mxPoint x="732" y="174.95" as="targetPoint" />
          </mxGeometry>
        </mxCell>
      </root>
    </mxGraphModel>
  </diagram>
</mxfile>
